PathFileType	4	(X/Y/Z)	/home/abdul/Desktop/myosuite/custom_workspace/IK/output/01_12_1.trc
DataRate	CameraRate	NumFrames	NumMarkers	Units	OrigDataRate	OrigDataStartFrame	OrigNumFrames
200.0	200.0	22	3	mm	200.0	1	1486
Frame#	Time	V_Shoulder			V_Elbow			V_Wrist		
		X1	Y1	Z1	X2	Y2	Z2	X3	Y3	Z3

1	0.0	18.64900098203668	838.7158195135279	294.92026633927316	-41.067064794181285	690.1026458756277	10.054599897364579	-1.269085102814108	514.3505749055095	20.919347956514024
2	0.005	18.657739133895657	838.6538291421806	294.95886082311773	-41.128363667190996	690.0778304851029	10.101766771773276	-1.301117750865032	514.3091814991925	20.956803542005648
3	0.01	18.66668417063903	838.5895228524392	294.99789731335244	-41.190456159595605	690.0525133095241	10.149408473564957	-1.3331101436914157	514.2677144857304	20.995536515139637
4	0.015	18.67583621579631	838.5228835451571	295.03733874942344	-41.25329536799873	690.026705946352	10.197470925998529	-1.3650330055150626	514.2262558864295	21.035599679223004
5	0.02	18.685195467613486	838.4538963189942	295.077147909967	-41.3168347356409	690.0004197651682	10.2458997114814	-1.3968599447385746	514.1848878322496	21.077049839122143
6	0.025	18.694762209283947	838.3825485077133	295.1172875539399	-41.38102829172986	689.9736657755725	10.294640292990966	-1.4285677869981406	514.1436920991523	21.11994798680911
7	0.03	18.704536818236868	838.3088297118785	295.15772055993835	-41.44583089058951	689.9464544891771	10.343638237848197	-1.4601369105494442	514.1027496183713	21.164359481870534
8	0.035	18.71451977440091	838.2327318245084	295.1984100628724	-41.51119844954393	689.9187957758484	10.392839442850423	-1.4915515828605184	514.0621399621319	21.21035422604917
9	0.04	18.724711667356214	838.1542490502567	295.2393195872099	-41.57708818446077	689.8906987143647	10.442190359801087	-1.5228002972415542	514.0219408054554	21.258006830878877
10	0.045	18.735113202285557	838.0733779177322	295.28041317606863	-41.643458841888304	689.8621714376891	10.49163822051473	-1.5538761082990735	513.982227364807	21.30739677746832
11	0.05	18.745725204637093	837.990117284607	295.32165551550014	-41.710270926733905	689.8332209730788	10.541131260427086	-1.5847769649609535	513.9430718144724	21.358608567487224
12	0.055	18.75654862341622	837.9044683352053	295.3630120533824	-41.77748692444939	689.8038530772881	10.590618940001965	-1.6155060397812147	513.9045426816679	21.411731864411216
13	0.06	18.767584533031705	837.8164345703161	295.40444911241565	-41.8450715167126	689.7740720671559	10.640052163194785	-1.6460720532000117	513.866704221529	21.466861624084792
14	0.065	18.77883413363176	837.7260217890138	295.4459339967964	-41.91299178962545	689.7438806459072	10.689383492301811	-1.6764895914062592	513.8296157732431	21.524098213662974
15	0.07	18.790298749877554	837.6332380623254	295.48743509222226	-41.98121743348673	689.7132797255333	10.738567358590743	-1.7067794164277164	513.7933310987238	21.583547517989444
16	0.075	18.801979828115233	837.538093698622	295.52892195896396	-42.04972093324251	689.6822682456543	10.787560268169456	-1.7369687670569558	513.7578977053544	21.6453210324606
17	0.08	18.813878931921952	837.440601200654	295.57036541781395	-42.1184777487678	689.6508429892995	10.836321002604942	-1.7670916492117907	513.7233561544571	21.709535941412533
18	0.085	18.825997736016568	837.3407752141906	295.61173762879986	-42.18746648418881	689.6189983960753	10.884810813854006	-1.7971891143253682	513.6897393572784	21.776315181051366
19	0.09	18.83833801854126	837.2386324682475	295.65301216261696	-42.2566690455151	689.5867263732184	10.9329936131116	-1.827309524363887	513.6570718604161	21.845787485928575
20	0.095	18.85090165173614	837.1341917069279	295.69416406479826	-42.32607078591205	689.5540161050537	10.980836153222231	-1.8575088020777724	513.6253691227428	21.918087417941713
21	0.1	18.86369059104467	837.0274736129246	295.7351699126989	-42.3956606380058	689.5208538613986	11.02830820433676	-1.8878506651045832	513.5946367860208	21.99335537681997
22	0.105	18.876706862703504	836.9185007227679	295.77600786541996	-42.4654312326752	689.4872228054782	11.075382722533563	-1.9184068425587117	513.5648699415242	22.07173759103393
